<?xml version="1.0" encoding="UTF-8" standalone="no"?>
<svg
   xmlns:dc="http://purl.org/dc/elements/1.1/"
   xmlns:cc="http://creativecommons.org/ns#"
   xmlns:rdf="http://www.w3.org/1999/02/22-rdf-syntax-ns#"
   xmlns:svg="http://www.w3.org/2000/svg"
   xmlns="http://www.w3.org/2000/svg"
   xmlns:sodipodi="http://sodipodi.sourceforge.net/DTD/sodipodi-0.dtd"
   xmlns:inkscape="http://www.inkscape.org/namespaces/inkscape"
   inkscape:version="1.0 (4035a4fb49, 2020-05-01)"
   sodipodi:docname="TM2D.svg"
   viewBox="0 0 1365.3333 746.66669"
   height="746.66669"
   width="1365.3333"
   id="svg10"
   version="1.1">
  <metadata
     id="metadata16">
    <rdf:RDF>
      <cc:Work
         rdf:about="">
        <dc:format>image/svg+xml</dc:format>
        <dc:type
           rdf:resource="http://purl.org/dc/dcmitype/StillImage" />
        <dc:title></dc:title>
      </cc:Work>
    </rdf:RDF>
  </metadata>
  <defs
     id="defs14" />
  <sodipodi:namedview
     inkscape:current-layer="g18"
     inkscape:window-maximized="1"
     inkscape:window-y="-6"
     inkscape:window-x="-6"
     inkscape:cy="433.67005"
     inkscape:cx="682.66663"
     inkscape:zoom="0.66294641"
     showgrid="false"
     id="namedview12"
     inkscape:window-height="698"
     inkscape:window-width="1280"
     inkscape:pageshadow="2"
     inkscape:pageopacity="0"
     guidetolerance="10"
     gridtolerance="10"
     objecttolerance="10"
     borderopacity="1"
     bordercolor="#666666"
     pagecolor="#ffffff" />
  <g
     id="g18"
     inkscape:label="Image"
     inkscape:groupmode="layer">
    <g
       transform="translate(25.643098,-16.592593)"
       id="g22">
      <path
         id="path36"
         d="m 341.33332,631.17248 c -21.08844,-7.21609 -36.9881,-24.92572 -43.30893,-48.23913 -1.95496,-7.21055 -2.0244,-14.45506 -2.0244,-211.20001 0,-194.74445 0.0865,-204.0157 1.96129,-210.13333 3.20559,-10.46041 8.20814,-18.7138 16.16653,-26.67219 7.92626,-7.92626 16.05862,-12.84786 26.67218,-16.14165 6.18492,-1.91941 17.72771,-1.98617 343.46666,-1.98617 324.24585,0 337.31005,0.0747 343.46665,1.96234 16.7216,5.1271 30.8351,16.31563 38.1569,30.24912 7.7231,14.69701 7.1764,-2.31048 7.1764,223.2848 0,195.31397 -0.079,203.60569 -1.9961,210.70923 -1.0979,4.06699 -3.0118,9.69978 -4.2529,12.5173 -5.5167,12.52376 -18.3856,26.31618 -30.0861,32.24526 -12.3227,6.24436 12.604,5.83443 -352.95562,5.80443 l -335.50922,-0.0275 z M 1017.673,607.35029 c 14.3268,-4.24443 24.9695,-14.88173 29.1586,-29.14387 1.5312,-5.2131 1.7017,-25.84786 1.7017,-205.93974 0,-180.82863 -0.1657,-200.70532 -1.7164,-205.93974 -4.6521,-15.70311 -16.9518,-26.65842 -33.4406,-29.78544 -3.7296,-0.70731 -117.32962,-1.07483 -332.23113,-1.07483 -286.02682,0 -327.32191,0.1975 -332.67233,1.59112 -17.20417,4.48112 -27.73395,15.0109 -32.21507,32.21507 -1.38247,5.30768 -1.59006,31.71029 -1.58306,201.35126 0.005,130.58529 0.37718,197.53863 1.12266,202.1759 2.11295,13.14366 8.23701,22.74197 18.84084,29.52948 11.10909,7.11092 -16.01632,6.5898 347.03484,6.66699 300.48712,0.0639 330.72785,-0.0843 335.99995,-1.6462 z M 501.91606,567.20002 c -0.22934,-0.73334 -0.7309,-42.60997 -1.11459,-93.05918 -0.38369,-50.44921 -0.82255,-91.85078 -0.97525,-92.00348 -0.15271,-0.15271 -2.5123,0.0287 -5.24353,0.403 l -4.9659,0.68065 -0.27506,63.05617 -0.27508,63.05617 -5.6,-0.29859 -5.59999,-0.29861 v 28.86541 c 0,24.61322 -0.23459,28.95543 -1.59244,29.47648 -2.26846,0.8705 -22.2776,-3.33119 -32.96256,-6.92173 -18.2544,-6.13418 -33.92259,-17.8342 -39.70205,-29.64698 l -2.69775,-5.51402 -0.62567,-86.05606 -0.62568,-86.05607 -5.96359,-4.3642 c -9.05166,-6.62409 -16.03281,-13.13018 -21.12375,-19.6863 l -4.6012,-5.92544 0.28067,-35.83931 c 0.24171,-30.86265 0.50286,-35.88108 1.88068,-36.14017 0.88,-0.16548 7.36,4.73854 14.4,10.89784 7.04,6.15928 13.16,11.20824 13.6,11.21989 0.44,0.0116 0.8,-7.39048 0.8,-16.44919 0,-10.34362 0.41627,-16.72766 1.11905,-17.162 1.24527,-0.76962 1.08313,-0.87508 15.13769,9.84544 24.53266,18.71298 54.0632,33.35084 77.07659,38.20575 4.69334,0.9901 13.33569,1.88988 19.20525,1.9995 5.86955,0.10962 11.26955,0.56867 12,1.02012 0.9397,0.58077 1.32809,4.54563 1.32809,13.55785 0,17.04746 1.97518,16.77243 2.36717,-0.32962 l 0.29949,-13.06666 18.13334,-0.68487 c 18.79933,-0.71 33.36911,-2.56367 48.43639,-6.16239 4.82719,-1.15295 9.42793,-1.84637 10.22385,-1.54095 0.79593,0.30543 1.75469,2.55772 2.13059,5.0051 1.39894,9.10818 1.85792,11.38311 2.29666,11.38311 1.20801,0 11.67883,-5.76488 12.36284,-6.80656 0.43102,-0.6564 0.79102,-4.45577 0.8,-8.44306 0.0154,-6.79824 0.19897,-7.35024 2.94966,-8.86578 1.61334,-0.88889 11.81334,-6.32641 22.66667,-12.08336 10.85333,-5.75695 27.58249,-15.35307 37.17589,-21.32472 9.59341,-5.97165 18.23341,-10.70625 19.2,-10.52133 1.50119,0.28719 1.83521,2.51187 2.29078,15.25718 l 0.53333,14.92096 5.78511,-10.13334 c 7.73139,-13.54246 10.90772,-18.1682 19.40974,-28.26666 13.00199,-15.44342 29.2606,-28.2252 46.27181,-36.37679 22.50854,-10.78585 37.4491,-10.1839 49.5071,1.99464 3.02073,3.05094 4.70263,4.0863 5.23603,3.22324 0.46281,-0.74884 4.06129,-1.40224 8.75468,-1.58961 l 7.96886,-0.31815 0.32299,-6.93333 c 0.17765,-3.81334 0.71499,-7.32668 1.19411,-7.80744 2.1496,-2.15698 34.84592,3.32624 49.83199,8.3569 18.85289,6.3287 39.62355,19.72388 50.6949,32.69358 16.41393,19.22832 27.14366,45.00948 29.65513,71.25464 3.07481,32.13206 3.54193,46.00235 2.86267,84.99999 -0.38673,22.20295 -1.01527,58.249 -1.39674,80.10233 -0.52942,30.32879 -1.00375,39.73334 -2.00402,39.73334 -0.72074,0 -9.64682,-4.22705 -19.83573,-9.39345 -38.60379,-19.57446 -68.23565,-28.42012 -105.99197,-31.64058 -15.42243,-1.31547 -47.68274,3.64814 -74.13333,11.40623 -19.24548,5.64481 -44.76244,15.73424 -63.46666,25.09479 -6.86265,3.43441 -60.48261,33.37985 -73.26781,40.91828 -21.26446,12.53797 -65.26308,29.6677 -90.0797,35.07021 -21.69612,4.72319 -51.1378,6.99122 -52.06975,4.01119 z m 27.71578,-12.00437 c 16.68545,-2.09657 32.5415,-5.41746 34.13794,-7.14983 0.98358,-1.06734 0.95646,-12.47206 -0.12,-50.4458 -0.765,-26.98667 -1.41917,-60.00173 -1.45369,-73.36681 -0.0551,-21.3341 0.14567,-24.38013 1.64488,-24.95544 0.93921,-0.3604 2.08438,-0.0458 2.54482,0.69927 0.97187,1.57253 8.22256,45.90825 16.45712,100.63026 3.16219,21.01401 6.00863,38.46649 6.32543,38.78329 0.74225,0.74226 13.45387,-4.09239 25.96599,-9.8757 9.09761,-4.20508 9.84072,-4.78563 10.35425,-8.08921 0.30429,-1.95745 2.03667,-24.439 3.84974,-49.959 1.81307,-25.52 4.47365,-58.33729 5.91241,-72.92733 1.43876,-14.59003 2.61592,-26.71003 2.61592,-26.93333 0,-0.2233 0.9152,-0.40601 2.03379,-0.40601 1.80806,0 2.10458,1.09511 2.67161,9.86667 1.1673,18.05752 2.69885,54.24059 3.91671,92.53333 0.66237,20.82667 1.35751,38.03081 1.54474,38.23143 0.18724,0.20061 9.56744,-4.80829 20.84491,-11.13088 l 20.50447,-11.49564 -0.56217,-109.71762 c -0.3092,-60.3447 -0.82885,-109.98432 -1.1548,-110.31025 -0.32594,-0.32594 -6.98411,3.21857 -14.79594,7.8767 -20.39022,12.1585 -29.70513,17.3609 -43.05892,24.04848 -6.48392,3.24714 -12.283,6.54752 -12.88685,7.33417 -0.60384,0.78665 -3.14112,15.59028 -5.6384,32.89694 -8.36192,57.95006 -9.13547,61.77702 -11.92346,58.98903 -0.64404,-0.64404 -4.03508,-18.62004 -7.53566,-39.94667 -3.50057,-21.32663 -6.54481,-39.33985 -6.76498,-40.02938 -0.30011,-0.93993 -1.81775,-0.87472 -6.06434,0.26063 -16.56304,4.4282 -34.03979,7.08303 -50.36023,7.65005 l -16.96286,0.58934 0.77639,113.1418 c 0.42702,62.22799 1.00864,113.51757 1.29248,113.97685 0.68538,1.10896 1.10041,1.08886 15.8887,-0.76934 z M 466.13332,461.3963 c 0,-62.78864 0.35454,-92.42284 1.11133,-92.89056 0.61122,-0.37776 5.53563,0.10978 10.94311,1.08342 5.40749,0.97365 11.7474,1.61439 14.08869,1.42389 l 4.25687,-0.34637 0.5645,-20.8 c 0.31049,-11.44 0.23466,-21.21183 -0.1685,-21.71517 -0.40316,-0.50335 -5.93718,-2.03922 -12.29783,-3.41306 -43.22744,-9.33669 -69.9969,-21.80242 -97.54636,-45.42437 -3.28984,-2.82084 -6.28984,-4.82048 -6.66666,-4.44366 -0.37684,0.37683 -0.68515,10.37313 -0.68515,22.21399 v 21.52885 l 3.10379,4.28465 c 3.79324,5.23641 10.99189,11.5123 20.89621,18.21759 l 7.46667,5.05499 0.82318,88.4606 0.82318,88.4606 2.70017,4.60749 c 5.32488,9.08624 19.57937,17.81425 37.7868,23.13683 4.98667,1.45776 9.90667,2.67601 10.93334,2.70723 1.76381,0.0537 1.86666,-5.02336 1.86666,-92.14694 z m 257.23312,10.14533 c 30.78241,-14.52002 66.64237,-25.79881 95.30021,-29.97413 4.69333,-0.6838 9.61333,-1.44536 10.93333,-1.69236 2.35303,-0.44031 2.4,-0.74095 2.4,-15.36211 v -14.91302 l -5.06667,10e-4 c -7.35778,0.002 -19.28744,2.30939 -43.79451,8.47014 -20.35164,5.11653 -23.67215,5.57471 -23.67215,3.26683 0,-0.51484 4.86319,-9.96651 10.80709,-21.00372 32.1446,-59.6892 46.93373,-94.19859 51.62658,-120.46692 2.91295,-16.30526 0.31529,-44.10819 -5.26959,-56.40074 -6.45116,-14.19926 -17.03684,-19.53142 -31.92166,-16.07941 -30.63973,7.10583 -69.04375,47.43457 -73.21027,76.87942 -1.52212,10.75682 -1.43319,42.13333 0.11942,42.13333 1.35372,0 32.36738,-18.53256 35.3151,-21.10293 1.12665,-0.98244 1.86916,-3.1479 1.87296,-5.46239 0.0115,-7.02584 3.03918,-24.00606 5.65734,-31.72833 4.823,-14.22551 11.89792,-21.5847 19.39823,-20.17763 8.45492,1.58616 13.0159,9.86733 11.67264,21.19356 -2.39004,20.15245 -2.47551,20.37342 -25.92889,67.03108 -29.72453,59.13333 -43.55172,92.08405 -47.66684,113.59189 -1.67206,8.73903 -2.09818,27.05475 -0.62944,27.05475 0.50013,0 5.92584,-2.36627 12.05712,-5.25838 z m 247.6702,-30.20828 c 2.04966,-94.1518 2.09997,-113.95593 0.3259,-128.31107 -3.00234,-24.29392 -9.37205,-44.5701 -19.01552,-60.5306 -5.87915,-9.73031 -19.44478,-23.99618 -28.61624,-30.09335 -18.6276,-12.38361 -43.73532,-19.71997 -68.79747,-20.10227 l -10.66666,-0.16272 v 117.86667 117.86667 l 8,0.76085 c 28.88878,2.74751 44.75707,5.87897 66.89938,13.20197 14.25024,4.71289 39.23246,15.25723 46.16728,19.486 2.05333,1.2521 4.01854,2.27834 4.36711,2.28053 0.34858,0.002 0.94988,-14.51602 1.33622,-32.26268 z m -77.74566,-18.13334 c -0.27979,-0.73333 -0.38473,-40.69333 -0.23319,-88.8 l 0.27552,-87.46667 4.47337,-0.32507 c 5.57489,-0.4051 10.41094,1.98548 13.16981,6.51019 1.96033,3.21504 2.07589,5.4748 1.97474,38.61488 -0.0591,19.36 -0.41729,55.75979 -0.79601,80.88843 l -0.68858,45.68842 -3.48349,3.11158 c -2.86717,2.56105 -4.43005,3.11158 -8.83348,3.11158 -3.29756,0 -5.54514,-0.51151 -5.85869,-1.33334 z M 713.02289,408.1578 c 7.26441,-18.23001 19.13307,-43.84518 33.37931,-72.03985 6.04407,-11.96179 10.79011,-21.94783 10.54676,-22.19119 -0.24336,-0.24335 -11.77461,6.42358 -25.62502,14.81539 l -25.18255,15.25786 -0.004,39.91112 c -0.002,21.9511 0.23817,39.66889 0.53421,39.37286 0.29603,-0.29604 3.15414,-7.10282 6.35133,-15.12619 z m 110.44376,-53.94719 8,-1.89221 0.21548,-29.7592 0.21549,-29.75919 -5.61736,16 c -3.08956,8.8 -9.06653,23.66392 -13.28216,33.03092 -4.21563,9.36701 -7.66479,17.38995 -7.66479,17.82876 0,0.43882 2.28,-0.18197 5.06667,-1.37951 2.78667,-1.19754 8.66667,-3.02885 13.06667,-4.06957 z"
         style="fill:#b5b4c7;stroke-width:1.06667" />
      <path
         id="path34"
         d="m 342.39999,630.5219 c -20.11658,-6.50384 -34.73407,-21.89631 -42.95108,-45.22826 L 297.11504,578.66668 296.8028,376.301 c -0.3467,-224.69285 -0.77615,-210.43141 6.80016,-225.82225 5.26837,-10.70239 15.37338,-20.80741 26.07577,-26.07578 15.57963,-7.66924 -13.11435,-7.12311 358.04185,-6.81454 322.15842,0.26783 334.89892,0.35193 340.54602,2.24768 21.4706,7.20767 35.8437,21.7595 42.3044,42.83056 1.876,6.11866 1.9623,15.3325 1.9623,209.60001 0,193.57484 -0.093,203.5255 -1.949,210.07163 -6.8719,24.22861 -23.3609,42.24034 -44.3779,48.47609 -5.2763,1.56547 -35.8008,1.71383 -341.86668,1.66159 -319.09904,-0.0545 -336.36937,-0.15316 -341.93973,-1.95409 z M 1016.939,608.52178 c 15.268,-3.97681 27.0726,-15.78138 31.0494,-31.0494 1.4098,-5.41253 1.6116,-31.1065 1.6116,-205.2057 0,-216.78016 0.3113,-205.36183 -5.8877,-215.93965 -3.6751,-6.2711 -10.7383,-13.08201 -16.7611,-16.16251 -12.0447,-6.16053 11.6456,-5.76452 -344.84746,-5.76452 -317.11074,0 -327.82533,0.0641 -335.21418,2.00394 -16.47459,4.32526 -27.77858,15.81385 -31.62734,32.14383 -1.43185,6.07522 -1.63164,30.72139 -1.6384,202.11891 -0.005,130.6309 0.36097,197.49344 1.10688,202.13334 2.82526,17.57459 14.76231,31.2796 31.06597,35.66708 4.85715,1.30711 52.92727,1.53592 335.31254,1.59606 290.77898,0.062 330.37199,-0.1198 335.82979,-1.54138 z M 502.98322,566.13335 c -0.22906,-0.73333 -0.72562,-42.37333 -1.10348,-92.53334 -0.37786,-50.16 -1.06269,-91.5833 -1.52185,-92.0518 -0.45916,-0.46849 -3.18752,-0.45746 -6.06303,0.0245 l -5.22821,0.8763 -0.53333,62.90881 -0.53333,62.90882 -5.6,-0.34294 -5.6,-0.34293 v 28.90975 c 0,23.28726 -0.28009,29.01722 -1.44014,29.46238 -2.25281,0.86449 -21.97145,-3.48499 -32.36083,-7.13804 -13.05356,-4.58983 -22.00579,-9.84513 -29.6688,-17.41674 C 401.1443,529.35754 402.16638,538.169 401.39075,438.46631 l -0.67357,-86.58427 -5.56041,-3.69079 c -7.68395,-5.10031 -14.75787,-11.48496 -20.89345,-18.85762 l -5.19666,-6.24441 v -35.08168 c 0,-22.62962 0.38506,-35.31966 1.08487,-35.75216 0.59667,-0.36877 7.18166,4.60636 14.63329,11.05582 7.45163,6.44947 13.92344,11.49454 14.38179,11.21125 0.45836,-0.28327 0.83338,-7.92673 0.83338,-16.98544 0,-13.45275 0.27523,-16.47038 1.50222,-16.47038 0.82622,0 4.06622,2.08235 7.2,4.62743 22.24264,18.06427 51.17572,33.76298 74.893,40.63598 10.35076,2.99953 28.25478,5.33559 33.43904,4.36303 6.1004,-1.14445 6.69907,0.15872 6.69907,14.58239 0,11.56536 0.17312,12.71452 1.86667,12.39086 1.61753,-0.30913 1.93784,-2.06347 2.4,-13.14488 l 0.53333,-12.78814 17.6,-0.68875 c 18.4125,-0.72055 33.02174,-2.6042 48.06587,-6.19739 4.91673,-1.17433 9.32666,-1.74799 9.79985,-1.27481 0.47318,0.47319 1.35481,3.94298 1.95917,7.71065 0.60436,3.76767 1.49179,7.2471 1.97207,7.73207 1.16784,1.17925 13.48831,-5.10892 14.33548,-7.3166 0.36715,-0.9568 0.66756,-4.81638 0.66756,-8.57683 v -6.83718 l 12,-6.01214 c 16.76621,-8.40006 35.34825,-18.8975 52.47259,-29.64304 8.031,-5.03946 15.29007,-9.16265 16.13128,-9.16265 1.26019,0 1.52946,2.81687 1.52946,16 0,8.8 0.36,15.99195 0.8,15.98211 0.44,-0.01 3.6645,-5.16985 7.16557,-11.46667 8.82858,-15.87865 14.3684,-23.51655 25.50851,-35.1693 11.49335,-12.02225 24.57989,-22.09747 36.92592,-28.42892 13.09162,-6.71384 19.39391,-8.55892 29.33333,-8.5878 10.65517,-0.0309 16.63378,2.60248 23.35699,10.28811 4.28272,4.8958 4.75047,5.16448 5.40431,3.1044 0.64288,-2.02552 1.51178,-2.25526 8.52979,-2.25526 8.94971,0 9.10891,-0.15889 9.10891,-9.09096 0,-3.14406 0.44767,-5.99315 0.99484,-6.33131 0.54715,-0.33817 5.44223,-0.11103 10.87793,0.50473 37.268,4.22177 64.82668,16.52786 85.19087,38.04123 17.93484,18.94692 29.16593,44.74851 31.92515,73.34275 3.15963,32.74404 3.58914,45.04501 2.90874,83.30713 -0.3856,21.68455 -1.01386,57.54644 -1.39616,79.6931 -0.38229,22.14667 -1.0923,40.26667 -1.57778,40.26667 -0.48549,0 -6.77191,-3.09653 -13.96982,-6.88117 -37.40647,-19.66827 -72.1395,-30.65228 -106.42044,-33.65455 -28.84407,-2.52611 -70.07165,5.72511 -112.1148,22.43849 -17.80553,7.07821 -43.09467,19.92084 -74.55186,37.85977 -38.20869,21.78909 -48.22472,27.06107 -62.4,32.84449 -19.96338,8.14495 -46.33426,16.70209 -59.73044,19.38206 -22.5628,4.51379 -47.07408,6.29137 -47.95299,3.47758 z m 26.12398,-9.78767 c 16.00681,-1.99135 34.30884,-5.7394 35.84695,-7.34105 0.91682,-0.9547 0.84789,-14.68542 -0.27681,-55.13795 -1.6312,-58.67034 -1.58643,-92.64403 0.12265,-93.06845 1.32614,-0.32932 4.67471,19.1261 14.89747,86.55549 4.39325,28.97788 8.26265,52.96198 8.59869,53.29801 1.24782,1.24783 31.51034,-11.17487 35.91873,-14.74457 2.12788,-1.72305 2.46285,-4.71958 6.27482,-56.13036 4.0604,-54.76122 7.79379,-95.08252 8.90687,-96.19559 0.33187,-0.33189 0.85458,-0.35225 1.16157,-0.0452 0.76983,0.76982 3.3482,54.40655 4.81017,100.06407 0.6669,20.82666 1.62776,38.29859 2.13527,38.8265 0.78011,0.81146 36.66382,-18.37733 41.44883,-22.16473 1.25895,-0.99647 1.40415,-17.99946 0.95117,-111.38106 -0.30429,-62.72769 -0.94641,-110.61687 -1.4905,-111.16095 -0.56341,-0.56342 -4.45764,1.28066 -9.4845,4.49128 -11.02971,7.04463 -38.57589,22.5286 -52.50814,29.51531 -8.11913,4.07156 -11.04814,6.0871 -11.44124,7.8731 -0.29061,1.3203 -2.96156,18.96054 -5.93546,39.20054 -6.7689,46.06834 -7.46066,50.13334 -8.53153,50.13334 -1.20805,0 -2.23744,-5.3013 -8.59558,-44.26667 -3.06332,-18.77333 -5.99638,-34.68497 -6.51791,-35.3592 -0.70935,-0.91704 -2.34855,-0.85061 -6.50682,0.26367 -15.29015,4.09728 -35.15552,7.12709 -50.89191,7.7619 l -16.53334,0.66693 0.29248,113.6 c 0.16087,62.48001 0.50581,114.20001 0.76653,114.93334 0.59737,1.6802 1.66426,1.66813 16.58154,-0.18767 z m -61.90721,-93.88271 c 0,-58.71885 0.37755,-92.43706 1.03961,-92.84623 0.57179,-0.35339 4.94482,0.0982 9.71783,1.00371 10.50337,1.99246 17.40294,2.10681 18.87674,0.31289 0.86102,-1.04804 2.03399,-36.68696 1.41944,-43.12724 -0.0661,-0.69331 -3.84029,-2.05086 -8.38696,-3.01677 -46.21368,-9.81777 -72.05086,-21.25136 -99.73288,-44.13424 -5.13308,-4.24319 -9.81308,-7.41809 -10.4,-7.05536 -0.65797,0.40666 -1.06711,9.42046 -1.06711,23.5099 v 22.85039 l 7.10874,7.53565 c 3.90982,4.14461 11.03072,10.14525 15.82424,13.33474 l 8.71549,5.79908 0.70145,88.0461 c 0.6736,84.55025 0.78434,88.20859 2.78932,92.13867 3.10419,6.08472 12.27803,13.76905 22.06921,18.48596 8.51993,4.10448 24.19957,9.14064 28.92488,9.2904 l 2.4,0.0761 z m 278.65325,0.54323 c 25.069,-10.01475 67.75287,-21.40619 80.20931,-21.40619 7.14464,0 7.0041,0.34797 7.0041,-17.34166 v -16.04676 l -9.86667,0.65543 c -6.54617,0.43485 -17.86917,2.64283 -33.6456,6.56088 -25.12208,6.23901 -27.97473,6.70615 -27.92053,4.57211 0.0187,-0.73333 6.04681,-12.61333 13.39599,-26.4 39.28159,-73.69019 50.76125,-105.69197 48.97724,-136.53334 -2.31149,-39.9604 -15.07517,-56.36372 -39.45752,-50.70908 -23.11431,5.36057 -51.18381,29.05226 -66.39808,56.04242 -7.03528,12.48063 -8.06787,17.52475 -8.58912,41.95746 -0.29076,13.62912 -0.0733,22.62498 0.56236,23.26061 0.67087,0.67087 7.76902,-3.06412 20.12254,-10.58831 l 19.08606,-11.62479 0.74385,-8.43582 c 1.86032,-21.09722 6.54498,-35.89827 13.72672,-43.36915 5.2462,-5.45742 7.32627,-6.01584 13.22617,-3.5507 7.44846,3.11216 9.00497,12.3489 5.45341,32.36172 -1.60264,9.03076 -2.91392,12.14031 -15.29341,36.26667 -34.81886,67.85839 -51.81732,107.32075 -56.21538,130.50543 -1.58287,8.34416 -2.27681,27.69255 -1.03766,28.9317 0.33204,0.33203 5.606,-1.75587 11.71992,-4.6398 6.11392,-2.88392 17.00225,-7.5949 24.1963,-10.46883 z m 226.25213,-20.60619 c 2.04324,-93.5815 2.09687,-115.02662 0.32357,-129.37773 -8.82858,-71.4489 -47.30466,-108.2826 -117.16932,-112.16788 -11.3813,-0.63293 -11.40842,-0.6286 -12.02606,1.92229 -0.34046,1.40615 -0.4873,55.11665 -0.32631,119.35665 l 0.29273,116.80001 14.15207,1.2828 c 35.59455,3.22646 66.28772,11.90748 98.91459,27.97624 7.04,3.46721 13.32521,6.34232 13.96712,6.38915 0.80687,0.0589 1.38457,-9.87454 1.87161,-32.18153 z m -77.97826,-106.66667 0.27287,-87.73333 3.93585,-0.32723 c 5.47079,-0.45485 10.28867,2.31675 12.28066,7.06474 1.4591,3.47786 1.56305,12.75028 0.90491,80.72916 -0.41234,42.59123 -1.19767,78.56431 -1.76308,80.76095 -1.32264,5.13853 -4.45698,7.23905 -10.80188,7.23905 h -5.10219 z m -183.41449,81.33334 c 7.66768,-20.60756 17.25201,-41.703 35.55888,-78.2663 7.30663,-14.59313 13.03202,-26.78572 12.72309,-27.09465 -0.49735,-0.49736 -15.4753,8.28957 -44.59461,26.16175 l -9.33333,5.72839 v 42.81541 c 0,24.6777 0.39727,42.38613 0.93777,41.80207 0.51578,-0.55734 2.63446,-5.57334 4.7082,-11.14667 z m 99.38361,-57.5841 c 4.35752,-1.86786 10.27635,-3.57863 20.03708,-5.79152 l 2.93334,-0.66502 -0.0722,-33.84635 c -0.0413,-19.35084 -0.45637,-32.93269 -0.96922,-31.71301 -0.49337,1.17333 -2.42353,7.17333 -4.28926,13.33333 -4.07769,13.46317 -9.74947,27.82178 -18.23265,46.15748 -3.46684,7.49329 -6.30334,13.85329 -6.30334,14.13334 0,0.96329 1.9675,0.50446 6.89624,-1.60825 z"
         style="fill:#959ea3;stroke-width:1.06667" />
      <path
         id="path32"
         d="m 345.20968,630.8462 c -19.09439,-4.63722 -37.34922,-22.67764 -44.7046,-44.17951 l -2.37175,-6.93334 -0.29261,-205.33334 -0.2926,-205.33334 2.68616,-8.6688 c 5.91611,-19.09256 20.10046,-33.30619 39.28744,-39.36852 L 347.84345,118.4 h 335.72082 c 371.72093,0 340.55993,-0.61301 356.16703,7.00667 13.5598,6.6201 24.1936,19.37144 29.7383,35.66 1.9244,5.65321 1.997,13.33788 1.997,211.20001 0,196.18026 -0.087,205.61614 -1.9577,211.67757 -6.8965,22.34827 -20.9748,38.10263 -40.7942,45.6508 l -6.3147,2.40497 -335.46668,0.18287 c -287.10558,0.1565 -336.36868,-0.0362 -341.72364,-1.33669 z m 673.90022,-22.32651 c 7.5361,-2.28614 13.3019,-5.96148 19.1347,-12.19726 6.3158,-6.75204 9.9054,-14.40053 11.3055,-24.08884 1.4715,-10.18239 1.4715,-389.75143 0,-399.93382 -2.554,-17.67281 -13.4906,-30.55249 -30.8835,-36.37065 -5.6447,-1.88823 -18.3576,-1.96437 -335.99995,-2.01247 -317.74739,-0.0481 -330.37224,0.0237 -336.50122,1.91467 -9.36773,2.89018 -13.68755,5.39239 -19.71464,11.41948 -5.97333,5.97332 -9.24974,11.62977 -11.40082,19.68254 -2.21601,8.29586 -2.12268,402.8358 0.0973,411.35894 3.64739,14.00329 13.93265,25.05092 27.78603,29.8456 5.01062,1.73417 25.4711,1.84969 338.13333,1.90913 292.01371,0.0555 333.44257,-0.13168 338.04317,-1.52732 z M 503.29272,566.13335 c -0.0957,-0.14667 -0.45567,-41.78667 -0.8,-92.53334 l -0.62607,-92.26666 -5.83427,-0.33054 c -4.58481,-0.25975 -6.12676,0.0694 -7.2,1.5372 -1.07265,1.46694 -1.36573,15.12968 -1.36573,63.66796 v 61.80022 l -5.33333,-0.70749 -5.33333,-0.7075 v 28.87022 c 0,25.36606 -0.2052,28.94896 -1.6906,29.51897 -2.2086,0.84752 -17.26195,-2.13738 -28.42063,-5.63546 -19.74178,-6.18877 -35.17527,-17.18293 -41.2851,-29.40979 l -3.27034,-6.54453 -0.01,-80.62963 c -0.005,-44.34631 -0.30714,-83.10901 -0.67122,-86.13934 -0.62694,-5.21841 -0.95071,-5.69288 -6.12405,-8.97457 -3.00417,-1.90568 -9.90212,-7.95146 -15.32879,-13.43506 l -9.86667,-9.9702 v -35.7219 c 0,-19.64704 0.36,-35.7196 0.8,-35.71679 0.44,0.003 6.56,5.04436 13.6,11.20344 7.04,6.15908 13.52,11.07072 14.4,10.91477 1.32433,-0.2347 1.65073,-3.08385 1.89446,-16.53677 0.19587,-10.79393 0.68357,-16.25322 1.45229,-16.25322 0.63663,0 3.48366,1.94756 6.32674,4.32792 15.85547,13.27495 46.57881,30.87039 65.81093,37.69029 11.66386,4.13613 27.59228,7.04846 38.55013,7.04846 h 9.69911 v 12.6694 c 0,10.11512 0.33169,12.94466 1.64521,14.03478 3.08894,2.5636 4.19336,-0.55697 4.75479,-13.43467 l 0.53334,-12.23334 15.46666,-0.43668 c 16.31122,-0.46054 31.40879,-2.3662 47.70424,-6.02139 5.41066,-1.21364 10.28343,-1.93107 10.82838,-1.59428 0.54494,0.33679 1.3315,3.61321 1.7479,7.28094 1.09782,9.66952 1.55016,9.91734 10.1744,5.57425 l 7.32168,-3.68714 0.3117,-8.27594 0.3117,-8.27593 8,-4.10696 c 21.61242,-11.09513 38.77113,-20.66197 53.71043,-29.94624 9.03897,-5.61741 16.95938,-10.21347 17.60092,-10.21347 0.7792,0 1.26417,5.31241 1.46086,16.00256 0.2867,15.5811 1.0844,18.83839 3.49446,14.2691 12.56618,-23.82453 19.20629,-33.18446 34.01628,-47.94948 13.97965,-13.93722 24.90805,-21.96138 38.42832,-28.21597 11.08706,-5.12897 18.33236,-6.76652 27.14065,-6.13421 9.01598,0.64723 14.56342,3.47228 20.78553,10.58509 l 4.86772,5.56453 1.08768,-2.86081 c 1.04606,-2.75135 1.39294,-2.86081 9.06534,-2.86081 h 7.97767 l 0.3154,-7.2 c 0.31082,-7.09531 0.36111,-7.20521 3.45882,-7.55779 4.88997,-0.55659 26.52465,2.88159 36.72165,5.83578 22.09689,6.40174 37.38928,14.63176 50.96436,27.42786 10.90885,10.28285 16.70327,17.87771 23.02008,30.17283 9.71782,18.91487 13.69693,36.18986 15.69105,68.12132 0.62283,9.97334 1.38867,21.97334 1.70185,26.66667 0.31318,4.69333 -0.14006,35.65333 -1.00721,68.8 -0.86716,33.14667 -1.29695,65.8364 -0.9551,72.64384 0.42182,8.39998 0.24866,12.60763 -0.5389,13.09436 -0.63825,0.39446 -9.22611,-3.32602 -19.08415,-8.26773 -29.69557,-14.886 -54.32861,-23.56583 -81.26701,-28.63566 -17.79213,-3.3485 -46.60293,-3.31749 -64.6567,0.0695 -24.67228,4.62879 -45.10422,10.67611 -69.86667,20.67873 -19.50446,7.8787 -36.55044,16.6497 -78.92381,40.61028 -41.24312,23.32146 -53.33878,29.00962 -83.9532,39.48019 -27.31413,9.34189 -48.93701,13.52645 -69.895,13.52645 -5.14872,0 -9.43959,-0.12 -9.53525,-0.26667 z m 43.57868,-11.89164 c 7.51406,-1.40563 15.05709,-3.10175 16.76228,-3.76914 l 3.10038,-1.21343 -0.69429,-26.89623 c -2.90467,-112.52561 -3.0156,-119.41375 -1.94036,-120.48899 0.77665,-0.77665 1.29354,-0.3394 1.70049,1.43848 1.20224,5.25222 7.07264,42.45472 13.95246,88.42095 4.06124,27.13434 7.67641,48.06307 8.43979,48.85901 1.09299,1.13961 3.34157,0.59309 12.38789,-3.01096 12.48707,-4.97483 23.33475,-10.15457 25.22329,-12.04406 0.83159,-0.832 2.60157,-19.31435 5.12705,-53.53733 2.12137,-28.74666 4.78986,-61.36583 5.92999,-72.48703 1.14012,-11.1212 2.07295,-20.9372 2.07295,-21.81333 0,-0.97782 0.36589,-1.20166 0.9475,-0.57964 1.09914,1.17551 2.79936,35.31981 4.40586,88.48 1.21637,40.2501 1.75998,48.53334 3.1852,48.53334 1.25591,0 40.70927,-22.24075 42.48059,-23.94728 1.17315,-1.1302 1.28382,-20.6236 0.63846,-112.44332 -0.67641,-96.23507 -0.98847,-111.07608 -2.33564,-111.07608 -0.85521,0 -6.90251,3.29117 -13.43845,7.31371 -12.83843,7.9014 -25.46332,14.96371 -46.81686,26.18919 -7.48,3.93221 -13.6,7.51388 -13.6,7.95927 0,0.80456 -10.92692,74.37824 -12.34095,83.09481 -0.4066,2.50634 -1.09172,4.77481 -1.52249,5.04103 -0.90621,0.56007 -3.63325,-13.90823 -9.52399,-50.52935 -2.30006,-14.29891 -4.69844,-26.51453 -5.32972,-27.14581 -0.81925,-0.81925 -3.82017,-0.48408 -10.48451,1.17099 -16.5652,4.11394 -34.59187,6.74225 -49.03893,7.14993 -7.75899,0.21896 -14.541,0.66617 -15.07113,0.9938 -0.98889,0.61118 -0.50356,222.92611 0.49714,227.71888 0.53189,2.54747 0.57075,2.55401 11.07892,1.86537 5.79984,-0.38009 16.69303,-1.84113 24.20708,-3.24678 z m -79.88474,0.21164 c 0.97569,-0.97569 1.28,-23.06593 1.28,-92.91671 v -91.63669 l 4,0.67422 c 2.2,0.37081 8.52195,0.96417 14.04878,1.31856 8.92801,0.57248 10.20693,0.42807 11.46667,-1.29472 1.0662,-1.45812 1.41788,-7.1697 1.41788,-23.02743 v -21.08834 l -4,-1.07165 c -2.2,-0.58941 -7.6,-1.82607 -12,-2.74813 -38.99315,-8.17141 -66.46841,-20.78533 -92.50476,-42.46904 -5.41095,-4.50638 -10.33095,-8.19341 -10.93333,-8.19341 -0.71742,0 -1.09524,8.44982 -1.09524,24.4943 v 24.49432 l 6.5561,7.0085 c 3.60587,3.85468 10.48843,9.62497 15.2946,12.82288 l 8.73847,5.81438 0.70541,30.58969 c 0.38798,16.82432 0.70542,56.20701 0.70542,87.51707 0,62.83952 -0.23431,60.51802 6.90566,68.42111 7.62897,8.44436 18.8909,14.47303 37.08758,19.85352 10.36821,3.06572 10.6641,3.10023 12.32676,1.43757 z m 254.7467,-80.42139 c 36.2452,-16.86574 69.2832,-26.88398 105.99995,-32.14278 l 5.86667,-0.84026 0.29402,-16.17723 c 0.2806,-15.43934 0.19548,-16.2085 -1.86606,-16.8628 -4.06211,-1.28927 -22.95117,1.79373 -45.89463,7.49072 -12.61333,3.13196 -23.25883,5.36581 -23.65667,4.9641 -0.39783,-0.4017 4.55949,-10.57036 11.01628,-22.59703 23.59268,-43.94467 34.87842,-68.02073 43.00141,-91.73563 6.53552,-19.08036 8.03898,-27.22447 8.03898,-43.54635 0,-24.86386 -4.97336,-42.58164 -14.38876,-51.26046 -5.84329,-5.38614 -10.72037,-6.9075 -20.15723,-6.28781 -15.30132,1.00478 -31.9505,10.60468 -50.31279,29.01031 -12.79,12.82019 -20.82659,24.06431 -26.30189,36.7994 l -3.47699,8.0872 -0.3671,24.8 c -0.32467,21.93319 -0.1744,24.8 1.29993,24.8 2.58685,0 38.37312,-22.13443 39.211,-24.25269 0.40914,-1.03435 0.77763,-4.44524 0.81886,-7.57976 0.12296,-9.34696 4.16388,-26.72551 8.14461,-35.02707 4.68074,-9.7614 7.91743,-12.46203 14.10698,-11.77065 8.52685,0.95245 11.61235,6.70647 10.45355,19.49432 -1.65041,18.21297 -2.44421,20.33515 -22.1327,59.17094 -27.01261,53.28269 -41.81859,86.73105 -48.3811,109.29825 -2.77589,9.54574 -5.7246,36.00777 -4.39772,39.46556 0.87274,2.27433 1.37204,2.14836 13.0814,-3.30028 z m 250.41916,0.0142 c 0.35611,-0.92798 0.64284,-11.60798 0.63719,-23.73334 -0.005,-12.12534 0.53455,-41.90942 1.20044,-66.18681 1.62738,-59.33234 -0.09,-81.32311 -8.29877,-106.25928 -16.04634,-48.74524 -55.64013,-76.0897 -112.35807,-77.59736 l -10.13333,-0.26935 v 120 120 l 11.73333,0.73999 c 34.75084,2.19163 73.16851,13.26289 107.73333,31.04677 8.69584,4.47408 8.64102,4.46102 9.48588,2.25934 z m -76.41921,-51.19852 c -0.44,-0.44175 -0.8,-39.84317 -0.8,-87.55873 v -86.75556 h 4.74052 c 6.00076,0 9.93464,3.1649 11.26961,9.06667 0.57666,2.54927 0.56565,31.3157 -0.0273,71.46667 -0.54586,36.96 -1.00529,71.85324 -1.02096,77.54052 -0.0253,9.18753 -0.29611,10.64236 -2.4285,13.04764 -2.41328,2.72209 -10.11478,4.81777 -11.73334,3.19279 z m -184.40315,-5.80561 c 7.68454,-20.25631 17.13121,-41.08602 34.45624,-75.97534 8.66683,-17.45334 15.20819,-31.73334 14.53638,-31.73334 -0.67181,0 -1.97928,0.64305 -2.90548,1.42901 -0.92619,0.78595 -12.72398,8.06056 -26.21732,16.16581 -13.49333,8.10525 -25.13333,15.47393 -25.86666,16.37487 -1.77183,2.17677 -1.96101,88.01731 -0.19268,87.42787 0.62736,-0.20912 3.41264,-6.36912 6.18952,-13.68888 z m 98.26982,-56.63707 c 2.64,-1.21819 9.12,-3.28943 14.4,-4.60275 l 9.6,-2.38787 0.28104,-35.37383 c 0.27694,-34.85737 -0.3312,-41.26085 -2.92895,-30.84049 -4.40311,17.66218 -14.53555,44.69788 -23.4862,62.66667 -6.9001,13.85221 -6.7418,14.63391 2.13411,10.53827 z"
         style="fill:#739072;stroke-width:1.06667" />
      <path
         id="path30"
         d="m 344.65314,629.78077 c -20.62444,-5.54661 -36.43297,-22.19005 -44.01628,-46.34099 l -2.50353,-7.9731 v -203.2 c 0,-194.1107 0.0876,-203.48379 1.95777,-209.54424 6.4615,-20.93873 20.70698,-35.18742 41.77556,-41.78496 6.20559,-1.94326 16.59056,-2.00414 341.86666,-2.00414 322.19428,0 335.74098,0.0774 342.39998,1.95752 21.7175,6.13164 37.6244,21.86621 42.8012,42.33758 1.9738,7.80579 2.0275,14.30908 1.7508,212.2787 l -0.2853,204.22621 -2.8581,7.82392 c -7.8302,21.4353 -24.0001,37.31352 -43.0529,42.27615 -5.5688,1.45048 -43.63911,1.62541 -340.17979,1.56307 C 396.24252,631.3359 349.611,631.1141 344.65314,629.78077 Z m 674.08656,-20.28246 c 13.9577,-4.09965 25.0257,-14.84008 29.9038,-29.01872 1.9586,-5.69267 2.0231,-12.3334 2.0231,-208.21291 0,-195.87952 -0.064,-202.52024 -2.0231,-208.21291 -4.8867,-14.20364 -15.9274,-24.84937 -30.1522,-29.07369 -4.947,-1.46909 -41.24233,-1.64674 -336.43923,-1.64674 -326.49942,0 -330.98407,0.0279 -337.67305,2.10669 -13.10871,4.07372 -23.74613,13.82191 -28.83489,26.42441 l -2.47747,6.13557 -0.31462,200.53333 c -0.23005,146.62912 0.0116,202.24414 0.89914,206.89779 3.05873,16.03858 14.9708,29.24088 30.77563,34.10902 4.18645,1.28949 53.60122,1.52218 336.71291,1.58558 300.75945,0.0673 332.34848,-0.0849 337.59998,-1.62742 z M 503.29272,566.13335 c -0.0957,-0.14667 -0.45567,-41.78667 -0.8,-92.53334 l -0.62607,-92.26666 -5.83427,-0.33054 c -4.58481,-0.25975 -6.12676,0.0694 -7.2,1.5372 -1.07265,1.46694 -1.36573,15.12968 -1.36573,63.66796 v 61.80022 l -5.33333,-0.70749 -5.33333,-0.7075 v 28.87022 c 0,25.36606 -0.2052,28.94896 -1.6906,29.51897 -2.2086,0.84752 -17.26195,-2.13738 -28.42063,-5.63546 -19.74178,-6.18877 -35.17527,-17.18293 -41.2851,-29.40979 l -3.27034,-6.54453 -0.01,-80.62963 c -0.005,-44.34631 -0.30714,-83.10901 -0.67122,-86.13934 -0.62694,-5.21841 -0.95071,-5.69288 -6.12405,-8.97457 -3.00417,-1.90568 -9.90212,-7.95146 -15.32879,-13.43506 l -9.86667,-9.9702 v -35.7219 c 0,-19.64704 0.36,-35.7196 0.8,-35.71679 0.44,0.003 6.56,5.04436 13.6,11.20344 7.04,6.15908 13.52,11.07072 14.4,10.91477 1.32433,-0.2347 1.65073,-3.08385 1.89446,-16.53677 0.19587,-10.79393 0.68357,-16.25322 1.45229,-16.25322 0.63663,0 3.48366,1.94756 6.32674,4.32792 15.85547,13.27495 46.57881,30.87039 65.81093,37.69029 11.66386,4.13613 27.59228,7.04846 38.55013,7.04846 h 9.69911 v 12.6694 c 0,10.11512 0.33169,12.94466 1.64521,14.03478 3.08894,2.5636 4.19336,-0.55697 4.75479,-13.43467 l 0.53334,-12.23334 15.46666,-0.43668 c 16.31122,-0.46054 31.40879,-2.3662 47.70424,-6.02139 5.41066,-1.21364 10.28343,-1.93107 10.82838,-1.59428 0.54494,0.33679 1.3315,3.61321 1.7479,7.28094 1.09782,9.66952 1.55016,9.91734 10.1744,5.57425 l 7.32168,-3.68714 0.3117,-8.27594 0.3117,-8.27593 8,-4.10696 c 21.61242,-11.09513 38.77113,-20.66197 53.71043,-29.94624 9.03897,-5.61741 16.95938,-10.21347 17.60092,-10.21347 0.7792,0 1.26417,5.31241 1.46086,16.00256 0.2867,15.5811 1.0844,18.83839 3.49446,14.2691 12.56618,-23.82453 19.20629,-33.18446 34.01628,-47.94948 13.97965,-13.93722 24.90805,-21.96138 38.42832,-28.21597 11.08706,-5.12897 18.33236,-6.76652 27.14065,-6.13421 9.01598,0.64723 14.56342,3.47228 20.78553,10.58509 l 4.86772,5.56453 1.08768,-2.86081 c 1.04606,-2.75135 1.39294,-2.86081 9.06534,-2.86081 h 7.97767 l 0.3154,-7.2 c 0.31082,-7.09531 0.36111,-7.20521 3.45882,-7.55779 4.88997,-0.55659 26.52465,2.88159 36.72165,5.83578 22.09689,6.40174 37.38928,14.63176 50.96436,27.42786 10.90885,10.28285 16.70327,17.87771 23.02008,30.17283 9.71782,18.91487 13.69693,36.18986 15.69105,68.12132 0.62283,9.97334 1.38867,21.97334 1.70185,26.66667 0.31318,4.69333 -0.14006,35.65333 -1.00721,68.8 -0.86716,33.14667 -1.29695,65.8364 -0.9551,72.64384 0.42182,8.39998 0.24866,12.60763 -0.5389,13.09436 -0.63825,0.39446 -9.22611,-3.32602 -19.08415,-8.26773 -29.69557,-14.886 -54.32861,-23.56583 -81.26701,-28.63566 -17.79213,-3.3485 -46.60293,-3.31749 -64.6567,0.0695 -24.67228,4.62879 -45.10422,10.67611 -69.86667,20.67873 -19.50446,7.8787 -36.55044,16.6497 -78.92381,40.61028 -41.24312,23.32146 -53.33878,29.00962 -83.9532,39.48019 -27.31413,9.34189 -48.93701,13.52645 -69.895,13.52645 -5.14872,0 -9.43959,-0.12 -9.53525,-0.26667 z m 43.57868,-11.89164 c 7.51406,-1.40563 15.05709,-3.10175 16.76228,-3.76914 l 3.10038,-1.21343 -0.69429,-26.89623 c -2.90467,-112.52561 -3.0156,-119.41375 -1.94036,-120.48899 0.77665,-0.77665 1.29354,-0.3394 1.70049,1.43848 1.20224,5.25222 7.07264,42.45472 13.95246,88.42095 4.06124,27.13434 7.67641,48.06307 8.43979,48.85901 1.09299,1.13961 3.34157,0.59309 12.38789,-3.01096 12.48707,-4.97483 23.33475,-10.15457 25.22329,-12.04406 0.83159,-0.832 2.60157,-19.31435 5.12705,-53.53733 2.12137,-28.74666 4.78986,-61.36583 5.92999,-72.48703 1.14012,-11.1212 2.07295,-20.9372 2.07295,-21.81333 0,-0.97782 0.36589,-1.20166 0.9475,-0.57964 1.09914,1.17551 2.79936,35.31981 4.40586,88.48 1.21637,40.2501 1.75998,48.53334 3.1852,48.53334 1.25591,0 40.70927,-22.24075 42.48059,-23.94728 1.17315,-1.1302 1.28382,-20.6236 0.63846,-112.44332 -0.67641,-96.23507 -0.98847,-111.07608 -2.33564,-111.07608 -0.85521,0 -6.90251,3.29117 -13.43845,7.31371 -12.83843,7.9014 -25.46332,14.96371 -46.81686,26.18919 -7.48,3.93221 -13.6,7.51388 -13.6,7.95927 0,0.80456 -10.92692,74.37824 -12.34095,83.09481 -0.4066,2.50634 -1.09172,4.77481 -1.52249,5.04103 -0.90621,0.56007 -3.63325,-13.90823 -9.52399,-50.52935 -2.30006,-14.29891 -4.69844,-26.51453 -5.32972,-27.14581 -0.81925,-0.81925 -3.82017,-0.48408 -10.48451,1.17099 -16.5652,4.11394 -34.59187,6.74225 -49.03893,7.14993 -7.75899,0.21896 -14.541,0.66617 -15.07113,0.9938 -0.98889,0.61118 -0.50356,222.92611 0.49714,227.71888 0.53189,2.54747 0.57075,2.55401 11.07892,1.86537 5.79984,-0.38009 16.69303,-1.84113 24.20708,-3.24678 z m -79.88474,0.21164 c 0.97569,-0.97569 1.28,-23.06593 1.28,-92.91671 v -91.63669 l 4,0.67422 c 2.2,0.37081 8.52195,0.96417 14.04878,1.31856 8.92801,0.57248 10.20693,0.42807 11.46667,-1.29472 1.0662,-1.45812 1.41788,-7.1697 1.41788,-23.02743 v -21.08834 l -4,-1.07165 c -2.2,-0.58941 -7.6,-1.82607 -12,-2.74813 -38.99315,-8.17141 -66.46841,-20.78533 -92.50476,-42.46904 -5.41095,-4.50638 -10.33095,-8.19341 -10.93333,-8.19341 -0.71742,0 -1.09524,8.44982 -1.09524,24.4943 v 24.49432 l 6.5561,7.0085 c 3.60587,3.85468 10.48843,9.62497 15.2946,12.82288 l 8.73847,5.81438 0.70541,30.58969 c 0.38798,16.82432 0.70542,56.20701 0.70542,87.51707 0,62.83952 -0.23431,60.51802 6.90566,68.42111 7.62897,8.44436 18.8909,14.47303 37.08758,19.85352 10.36821,3.06572 10.6641,3.10023 12.32676,1.43757 z m 254.7467,-80.42139 c 36.2452,-16.86574 69.2832,-26.88398 105.99995,-32.14278 l 5.86667,-0.84026 0.29402,-16.17723 c 0.2806,-15.43934 0.19548,-16.2085 -1.86606,-16.8628 -4.06211,-1.28927 -22.95117,1.79373 -45.89463,7.49072 -12.61333,3.13196 -23.25883,5.36581 -23.65667,4.9641 -0.39783,-0.4017 4.55949,-10.57036 11.01628,-22.59703 23.59268,-43.94467 34.87842,-68.02073 43.00141,-91.73563 6.53552,-19.08036 8.03898,-27.22447 8.03898,-43.54635 0,-24.86386 -4.97336,-42.58164 -14.38876,-51.26046 -5.84329,-5.38614 -10.72037,-6.9075 -20.15723,-6.28781 -15.30132,1.00478 -31.9505,10.60468 -50.31279,29.01031 -12.79,12.82019 -20.82659,24.06431 -26.30189,36.7994 l -3.47699,8.0872 -0.3671,24.8 c -0.32467,21.93319 -0.1744,24.8 1.29993,24.8 2.58685,0 38.37312,-22.13443 39.211,-24.25269 0.40914,-1.03435 0.77763,-4.44524 0.81886,-7.57976 0.12296,-9.34696 4.16388,-26.72551 8.14461,-35.02707 4.68074,-9.7614 7.91743,-12.46203 14.10698,-11.77065 8.52685,0.95245 11.61235,6.70647 10.45355,19.49432 -1.65041,18.21297 -2.44421,20.33515 -22.1327,59.17094 -27.01261,53.28269 -41.81859,86.73105 -48.3811,109.29825 -2.77589,9.54574 -5.7246,36.00777 -4.39772,39.46556 0.87274,2.27433 1.37204,2.14836 13.0814,-3.30028 z m 250.41916,0.0142 c 0.35611,-0.92798 0.64284,-11.60798 0.63719,-23.73334 -0.005,-12.12534 0.53455,-41.90942 1.20044,-66.18681 1.62738,-59.33234 -0.09,-81.32311 -8.29877,-106.25928 -16.04634,-48.74524 -55.64013,-76.0897 -112.35807,-77.59736 l -10.13333,-0.26935 v 120 120 l 11.73333,0.73999 c 34.75084,2.19163 73.16851,13.26289 107.73333,31.04677 8.69584,4.47408 8.64102,4.46102 9.48588,2.25934 z m -76.41921,-51.19852 c -0.44,-0.44175 -0.8,-39.84317 -0.8,-87.55873 v -86.75556 h 4.74052 c 6.00076,0 9.93464,3.1649 11.26961,9.06667 0.57666,2.54927 0.56565,31.3157 -0.0273,71.46667 -0.54586,36.96 -1.00529,71.85324 -1.02096,77.54052 -0.0253,9.18753 -0.29611,10.64236 -2.4285,13.04764 -2.41328,2.72209 -10.11478,4.81777 -11.73334,3.19279 z m -184.40315,-5.80561 c 7.68454,-20.25631 17.13121,-41.08602 34.45624,-75.97534 8.66683,-17.45334 15.20819,-31.73334 14.53638,-31.73334 -0.67181,0 -1.97928,0.64305 -2.90548,1.42901 -0.92619,0.78595 -12.72398,8.06056 -26.21732,16.16581 -13.49333,8.10525 -25.13333,15.47393 -25.86666,16.37487 -1.77183,2.17677 -1.96101,88.01731 -0.19268,87.42787 0.62736,-0.20912 3.41264,-6.36912 6.18952,-13.68888 z m 98.26982,-56.63707 c 2.64,-1.21819 9.12,-3.28943 14.4,-4.60275 l 9.6,-2.38787 0.28104,-35.37383 c 0.27694,-34.85737 -0.3312,-41.26085 -2.92895,-30.84049 -4.40311,17.66218 -14.53555,44.69788 -23.4862,62.66667 -6.9001,13.85221 -6.7418,14.63391 2.13411,10.53827 z"
         style="fill:#66658f;stroke-width:1.06667" />
      <path
         id="path28"
         d="m 344.65314,629.78077 c -20.62444,-5.54661 -36.43297,-22.19005 -44.01628,-46.34099 l -2.50353,-7.9731 v -203.2 c 0,-194.1107 0.0876,-203.48379 1.95777,-209.54424 6.4615,-20.93873 20.70698,-35.18742 41.77556,-41.78496 6.20559,-1.94326 16.59056,-2.00414 341.86666,-2.00414 322.19428,0 335.74098,0.0774 342.39998,1.95752 21.7175,6.13164 37.6244,21.86621 42.8012,42.33758 1.9738,7.80579 2.0275,14.30908 1.7508,212.2787 l -0.2853,204.22621 -2.8581,7.82392 c -7.8302,21.4353 -24.0001,37.31352 -43.0529,42.27615 -5.5688,1.45048 -43.63911,1.62541 -340.17979,1.56307 C 396.24252,631.3359 349.611,631.1141 344.65314,629.78077 Z m 674.08656,-20.28246 c 13.9577,-4.09965 25.0257,-14.84008 29.9038,-29.01872 1.9586,-5.69267 2.0231,-12.3334 2.0231,-208.21291 0,-195.87952 -0.064,-202.52024 -2.0231,-208.21291 -4.8867,-14.20364 -15.9274,-24.84937 -30.1522,-29.07369 -4.947,-1.46909 -41.24233,-1.64674 -336.43923,-1.64674 -326.49942,0 -330.98407,0.0279 -337.67305,2.10669 -13.10871,4.07372 -23.74613,13.82191 -28.83489,26.42441 l -2.47747,6.13557 -0.31462,200.53333 c -0.23005,146.62912 0.0116,202.24414 0.89914,206.89779 3.05873,16.03858 14.9708,29.24088 30.77563,34.10902 4.18645,1.28949 53.60122,1.52218 336.71291,1.58558 300.75945,0.0673 332.34848,-0.0849 337.59998,-1.62742 z M 504.26665,564.75033 c -0.44,-0.46156 -0.8,-41.51995 -0.8,-91.24085 0,-49.72091 -0.29134,-91.16091 -0.64745,-92.08889 -0.48569,-1.26568 -2.15138,-1.68316 -6.66667,-1.67091 -3.31056,0.009 -6.73921,0.47123 -7.61921,1.02722 -1.38601,0.87568 -1.64585,9.36759 -1.94287,63.49574 l -0.34286,62.48487 -4.99047,-0.31209 -4.99046,-0.31207 -0.28381,29.06667 c -0.3269,33.47918 1.19279,30.23133 -12.82783,27.4154 -28.2531,-5.67441 -49.23405,-17.76823 -56.68179,-32.67248 l -3.27324,-6.55033 -0.005,-74.22963 c -0.002,-40.82631 -0.31669,-79.64155 -0.69783,-86.2561 l -0.69297,-12.02647 -8.18992,-5.73883 c -4.50446,-3.15635 -11.39043,-9.24555 -15.30217,-13.53153 l -7.11178,-7.79272 v -34.44199 c 0,-18.9431 0.36,-34.42897 0.8,-34.41305 0.44,0.0159 6.08,4.62041 12.53333,10.23218 13.5869,11.8151 15.35028,12.97096 16.65265,10.91567 0.50308,-0.79391 0.92204,-8.52346 0.93102,-17.1768 0.009,-8.65333 0.25391,-15.73333 0.54429,-15.73333 0.29038,0 3.53038,2.4283 7.2,5.39622 17.28124,13.97677 45.00113,29.70395 64.55613,36.62664 11.43067,4.04658 27.60729,7.04381 38.0168,7.04381 h 9.16578 v 12.66939 c 0,13.47578 0.87065,15.94701 5.14086,14.59169 2.40258,-0.76254 3.39027,-6.17412 3.3966,-18.60996 l 0.004,-8.11779 14.66253,-0.14928 c 15.32483,-0.15602 33.05162,-2.31801 48.0227,-5.85694 4.85476,-1.14758 9.27258,-1.81104 9.81738,-1.47433 0.5448,0.33671 1.3138,3.46935 1.70888,6.96142 1.16086,10.26058 1.86617,10.62124 11.2042,5.72931 l 7.90924,-4.14351 0.31181,-8.28166 0.3118,-8.28165 14.0882,-7.05428 c 17.92302,-8.97448 27.23765,-14.21946 47.32127,-26.64615 8.89153,-5.50161 16.43934,-10.00293 16.77291,-10.00293 0.33358,0 0.73869,7.56 0.90026,16.8 0.24311,13.90409 0.5629,16.8 1.8552,16.8 0.8955,0 4.54443,-5.45908 8.55568,-12.8 10.40268,-19.03773 15.10866,-25.41598 28.72572,-38.93334 13.77263,-13.67177 24.63296,-21.64138 37.71452,-27.67597 10.72471,-4.94734 16.74122,-6.46449 25.51497,-6.43394 10.5276,0.0367 19.03551,4.76465 24.52006,13.62624 2.44059,3.94334 4.25211,3.99181 5.15491,0.13792 0.55969,-2.38923 1.21605,-2.62847 8.56276,-3.12091 l 7.95659,-0.53334 0.3188,-7.34901 0.3188,-7.34901 8.74786,0.72312 c 11.21648,0.9272 27.49723,4.23968 37.91051,7.71328 47.43101,15.82174 75.16278,52.89678 80.08105,107.06163 3.03356,33.40841 3.44214,50.45067 2.22136,92.65592 -0.67258,23.25258 -1.23064,56.07741 -1.24013,72.94408 -0.01,16.86667 -0.21308,30.66667 -0.45241,30.66667 -0.23932,0 -8.47604,-4.03075 -18.30382,-8.95723 -29.66384,-14.86992 -54.36286,-23.56725 -81.21198,-28.59742 -16.46564,-3.08482 -44.30414,-3.29379 -61.4567,-0.46133 -31.99363,5.28323 -67.80063,17.29958 -101.11976,33.93444 -13.54066,6.7603 -23.83884,12.45558 -71.48245,39.53245 -16.98441,9.6526 -35.62253,18.26512 -51.39779,23.75049 -25.88533,9.00083 -33.92264,11.39537 -46.71385,13.91735 -14.22369,2.80443 -42.08276,4.7802 -43.68615,3.09823 z m 37.06667,-8.4513 c 14.55386,-2.48052 23.77476,-4.8757 25.15009,-6.53286 0.94149,-1.13443 0.8037,-18.27379 -0.57447,-71.45501 -0.99719,-38.47942 -1.558,-70.21765 -1.24626,-70.5294 1.06695,-1.06694 2.93927,10.09832 13.45198,80.21826 4.13393,27.57333 7.98378,51.22386 8.55524,52.55672 1.26184,2.94315 2.63747,2.69308 16.73896,-3.04291 16.31536,-6.63651 23.77504,-10.6609 24.34939,-13.13614 0.28642,-1.23439 2.19925,-25.04434 4.25073,-52.91101 2.05147,-27.86667 4.43922,-57.62667 5.30608,-66.13333 0.86686,-8.50667 1.64204,-16.42667 1.72264,-17.6 0.61948,-9.01862 2.1139,16.25941 3.57568,60.48234 1.97113,59.63173 2.36618,65.84886 4.2296,66.56393 1.39422,0.53501 43.2365,-22.44447 44.6347,-24.51304 1.3718,-2.02954 -0.34034,-222.86019 -1.73941,-224.34765 -0.92445,-0.98286 -5.05373,1.03252 -17.73829,8.65755 -9.09333,5.46624 -25.41333,14.61935 -36.26666,20.34023 -10.85334,5.72089 -20.29688,10.945 -20.98566,11.60912 -0.68877,0.66413 -4.03691,20.04751 -7.44031,43.07418 -3.40341,23.02667 -6.50318,41.86667 -6.8884,41.86667 -0.80069,0 -2.41495,-8.83312 -8.47878,-46.39532 -2.36729,-14.6641 -4.76104,-27.11887 -5.31945,-27.67728 -0.6426,-0.6426 -4.63807,-0.1536 -10.88467,1.33216 -17.81782,4.23798 -35.22902,6.72936 -50.307,7.19846 -8.16067,0.25389 -15.12067,0.74493 -15.46666,1.09121 -1.25185,1.2529 0.0741,229.16162 1.34244,230.72853 1.43957,1.77857 14.91949,1.12972 30.02849,-1.44541 z m -73.10419,-1.56222 c 0.73636,-1.37591 1.10419,-32.33502 1.10419,-92.93634 v -90.87312 l 4.53334,0.90457 c 2.49333,0.49751 9.08398,0.91886 14.64589,0.93633 l 10.11256,0.0318 0.7593,-4.26666 c 1.38734,-7.79575 1.03038,-41.75609 -0.45109,-42.91644 -0.73333,-0.57438 -4.45333,-1.63594 -8.26667,-2.35904 -11.95458,-2.26685 -34.24009,-8.32103 -45.01516,-12.22899 -20.21062,-7.33015 -34.73801,-15.72614 -53.4529,-30.8927 -6.24576,-5.06158 -12.08553,-9.20286 -12.97727,-9.20286 -1.40449,0 -1.62133,3.33906 -1.62133,24.96575 v 24.96574 l 3.50891,4.19989 c 4.94719,5.9214 13.0244,12.89318 20.60968,17.78906 l 6.48715,4.18709 0.69713,22.38489 c 0.38342,12.31169 0.69713,51.60291 0.69713,87.31384 0,72.855 -0.45325,68.51286 8.10688,77.66433 8.35135,8.92827 21.03181,15.47085 39.35979,20.308 9.48494,2.50329 9.83564,2.50408 11.16247,0.0249 z m 253.50423,-79.64645 c 33.18659,-15.46853 68.89941,-26.70957 98.49067,-31.00112 6.7701,-0.98186 12.90928,-2.24237 13.64262,-2.80115 2.06799,-1.57575 1.87144,-32.04694 -0.21789,-33.78093 -2.96456,-2.46036 -23.25015,0.7179 -53.64878,8.40546 -8.94667,2.26253 -16.26667,3.65405 -16.26667,3.09225 0,-0.5618 5.46203,-11.18772 12.13785,-23.61316 28.18596,-52.46145 41.95822,-84.11664 47.65119,-109.52503 3.4163,-15.24735 2.47319,-42.29193 -1.99039,-57.0765 -3.33091,-11.03288 -10.94936,-20.4904 -18.97487,-23.55538 -6.66164,-2.54409 -17.98902,-1.59943 -27.60536,2.3022 -16.038,6.50707 -36.39104,23.19234 -49.35767,40.46301 -6.45838,8.60213 -14.62615,24.46967 -16.19738,31.46667 -1.45902,6.49731 -1.47807,49.79233 -0.0223,50.69204 1.01334,0.62627 37.05412,-20.32942 40.29066,-23.42675 0.79856,-0.76422 1.81175,-5.70754 2.3621,-11.52457 1.856,-19.61751 6.5323,-34.34998 13.03751,-41.07406 5.32513,-5.50429 13.53034,-4.31829 16.32027,2.35896 1.98363,4.74749 1.95284,9.9965 -0.13713,23.38042 -1.6515,10.57601 -2.01522,11.44006 -18.01437,42.79396 -27.09175,53.09234 -43.15295,89.00356 -50.32574,112.5233 -2.9948,9.82002 -3.95415,15.23553 -4.79414,27.06279 -0.57758,8.13235 -0.79446,15.45235 -0.48198,16.26667 0.88442,2.30479 2.79913,1.8392 14.10181,-3.42908 z m 250.80849,0.37632 c 0.63126,-0.78678 1.10049,-10.2968 1.14474,-23.2 0.0413,-12.02667 0.6168,-42.08065 1.27905,-66.78663 1.31483,-49.05127 0.56979,-68.90264 -3.31819,-88.41337 -9.43426,-47.34313 -34.19476,-77.21298 -75.11414,-90.61402 -15.85668,-5.19304 -50.12628,-9.64761 -53.38897,-6.93981 -1.33125,1.10484 -1.54436,17.80671 -1.54436,121.03698 0,108.21716 0.16256,119.81765 1.68724,120.40273 0.92798,0.3561 4.40798,0.65139 7.73334,0.6562 29.82309,0.0432 76.26215,13.03936 111.64608,31.24467 8.57944,4.41419 8.45641,4.38164 9.87521,2.61325 z m -77.06639,-54.26651 c -0.30802,-0.80675 -0.43599,-39.86682 -0.28442,-86.80016 l 0.2756,-85.33334 4.26667,0.35488 c 5.8889,0.48982 8.78784,2.64836 10.09969,7.52019 0.77545,2.87977 0.7927,26.10999 0.0564,76.00285 -0.58319,39.52048 -1.06689,74.56225 -1.07491,77.87059 -0.01,4.15221 -0.5927,6.70511 -1.88124,8.24289 -2.33297,2.78424 -10.62111,4.33374 -11.45786,2.1421 z m -188.82733,11.59984 c 7.84087,-23.34318 20.13466,-51.37708 40.22334,-91.72247 8.68735,-17.44736 15.79518,-32.20737 15.79518,-32.80001 0,-1.77013 -2.06696,-1.23415 -5.67117,1.47058 -1.86752,1.40146 -13.9555,8.91474 -26.86216,16.69618 -12.90667,7.78145 -24.30667,14.86919 -25.33334,15.75056 -1.72315,1.47927 -1.86666,5.0749 -1.86666,46.77048 0,39.84966 0.19233,45.16802 1.63347,45.16802 0.89842,0 1.83502,-0.6 2.08134,-1.33334 z M 811.91938,360.636 c 4.29767,-1.70353 10.69393,-3.67555 14.21393,-4.38227 3.52,-0.70671 7,-1.77168 7.73334,-2.36659 1.0214,-0.82863 1.32951,-9.84733 1.317,-38.55107 -0.009,-20.60817 -0.41733,-38.10179 -0.90745,-38.87472 -1.08031,-1.70369 -2.57507,1.80986 -4.45509,10.47199 -3.42001,15.75762 -14.14495,44.35247 -24.0962,64.24536 -6.9808,13.95485 -6.60383,14.53039 6.19447,9.4573 z"
         style="fill:#4e6262;stroke-width:1.06667" />
      <path
         sodipodi:nodetypes="csscsscssscscscssssssssssssssssscssscssscsssscssssscssscssscssssssscccsssssssssssscccssssssssssscssssssssssssssssssssssssssssscsssscssssssssscsscssssssssssssssscssssssssscssssssssscccsssccsssssccssssssssssssssssssssss"
         id="path26"
         d="m 353.06666,630.7549 c -23.08948,-2.37293 -43.93128,-21.15598 -51.87952,-46.75488 -1.90938,-6.14952 -1.98715,-14.43657 -1.98715,-211.73334 0,-197.86213 0.0726,-205.5468 1.99705,-211.20001 7.52707,-22.11211 24.32855,-46.73884 46.031,-40.62846 8.42789,2.3729 301.66497,-0.74709 340.8,-0.71482 L 1023.4666,120 l 5.8907,2.25905 c 20.9491,8.03394 32.8934,20.39948 39.0849,40.46339 1.8703,6.06069 1.9578,15.44948 1.9578,210.07757 0,195.78138 -0.078,203.98314 -1.9884,210.13334 -6.9272,22.29719 -22.1248,39.15032 -41.1347,45.61575 l -7.0103,2.38425 c -110.57671,0.0342 22.9783,4.35146 -331.73328,0.10262 -182.44025,-2.18532 -333.41333,-0.0701 -335.46666,-0.28107 z m 663.47174,-20.1621 c 16.9387,-3.85263 30.8833,-18.37974 34.1133,-35.53837 1.4902,-7.91598 1.4902,-397.65952 0,-405.5755 -2.9468,-15.65423 -14.8699,-29.26919 -30.4751,-34.79949 -4.9336,-1.74841 -24.64598,-1.87666 -333.77662,-2.17167 -229.20295,-0.21873 -330.62958,0.0307 -335.46666,0.82494 -14.12823,2.31988 -27.71962,11.86293 -33.698,23.6607 -5.95674,11.75505 -5.73075,3.32458 -5.74208,214.2066 -0.007,129.23474 0.36117,196.99713 1.09519,201.60001 2.97829,18.67618 15.53446,32.97043 32.95724,37.5193 6.51761,1.70166 29.07362,1.82853 335.31041,1.88587 294.58972,0.0552 329.07892,-0.11048 335.68232,-1.61239 z M 504.17247,542.13335 c -0.38531,-12.76 -0.70176,-54.25167 -0.7032,-92.20371 -0.002,-51.54203 -0.3185,-69.19895 -1.25088,-69.7752 -2.40643,-1.48726 -13.0738,-0.43684 -14.48507,1.42635 -1.03101,1.36116 -1.33333,15.75015 -1.33333,63.45983 v 61.69955 l -5.17837,-0.68695 c -4.80845,-0.63785 -5.2265,-0.50713 -5.8521,1.82993 -0.37056,1.38428 -0.68029,14.66627 -0.6883,29.51555 l -0.0146,26.9987 -5.06667,-0.72971 c -8.51028,-1.22569 -24.66069,-5.69197 -32.22992,-8.91296 -14.19634,-6.04108 -24.32453,-13.87824 -29.90341,-23.13914 l -3.73334,-6.19731 -0.55783,-86.9758 c -0.30682,-47.83669 -0.66682,-87.025 -0.8,-87.08514 -0.1332,-0.0602 -4.39749,-3.18012 -9.47622,-6.93333 -5.07874,-3.75319 -12.03874,-10.07632 -15.46667,-14.05139 l -6.23261,-7.22738 v -34.10596 c 0,-18.75826 0.25454,-34.10594 0.56563,-34.10594 0.3111,0 6.42467,5.05332 13.58573,11.2296 7.16106,6.17629 13.74653,11.09055 14.63437,10.92058 1.33269,-0.25513 1.70729,-3.25057 2.1476,-17.17295 l 0.53334,-16.86392 6.93333,5.59485 c 11.63747,9.39086 30.65569,21.23831 45.29358,28.21577 22.9585,10.94365 39.53556,15.40941 57.20025,15.40941 h 9.50617 v 12.58666 c 0,12.95738 0.64211,15.14667 4.44247,15.14667 3.12781,0 4.09086,-3.58553 4.09086,-15.23071 V 293.665 l 15.73333,-0.65188 c 16.9759,-0.70337 32.90325,-2.77434 47.0303,-6.11517 4.89333,-1.15719 9.2861,-1.86349 9.76171,-1.56955 0.47561,0.29394 1.19534,3.38287 1.59941,6.86428 0.40405,3.48141 1.34692,7.16716 2.09525,8.19057 1.1942,1.63315 1.7678,1.69207 4.68987,0.48171 1.83109,-0.75847 5.47393,-2.73914 8.09521,-4.40151 l 4.76595,-3.02247 0.31448,-7.7683 0.31449,-7.76829 10.66666,-5.73136 c 29.76968,-15.99566 38.52956,-20.93967 52.06165,-29.38315 8.10056,-5.05443 14.92837,-9.18987 15.1729,-9.18987 0.24454,0 0.5768,7.56 0.73837,16.8 0.24234,13.85941 0.56549,16.8 1.84628,16.8 0.88257,0 4.70856,-5.71123 8.86599,-13.23466 10.02811,-18.14722 15.42077,-25.44199 28.49407,-38.54454 13.20232,-13.23188 29.59209,-24.67044 42.81487,-29.88087 7.67707,-3.02514 10.29688,-3.53313 18.55514,-3.59788 12.18398,-0.0956 18.16316,2.57861 24.40062,10.91296 4.6418,6.20227 6.74553,6.96052 7.24593,2.61165 0.33203,-2.88566 0.47108,-2.93838 8.55645,-3.24401 l 8.21893,-0.31068 0.3144,-7.15598 0.3144,-7.15599 7.92451,0.28542 c 9.90603,0.3568 26.54405,3.68623 38.70109,7.74446 47.83846,15.96934 75.02659,53.04935 79.75336,108.77012 2.86309,33.75111 3.06105,48.80034 1.45221,110.4 -0.88869,34.02667 -1.35779,66.49019 -1.04243,72.14117 0.31536,5.65096 0.32048,10.52738 0.0114,10.83648 -0.3091,0.3091 -8.40951,-3.42392 -18.0009,-8.2956 -70.14025,-35.62572 -121.90981,-40.07657 -192.53259,-16.5529 -31.15043,10.37587 -48.75076,18.79455 -100.07255,47.86722 -46.26222,26.20653 -52.48214,29.16587 -85.54183,40.69956 -25.45216,8.87962 -50.20531,13.76894 -69.94908,13.81659 l -8.63014,0.0208 z m 41.19957,13.65662 c 12.8618,-2.37952 18.70389,-3.85637 20.93206,-5.29151 1.28905,-0.83025 1.32566,-8.87585 0.256,-56.26695 -0.68646,-30.41399 -1.52522,-62.01816 -1.86391,-70.2315 -1.19963,-29.09139 0.9716,-18.28884 14.57867,72.53334 4.10192,27.37879 7.09579,44.30516 8.00586,45.26245 1.25696,1.32218 2.72121,1.05063 10.81981,-2.0066 13.56085,-5.11923 29.03152,-12.49295 29.62393,-14.11953 0.28105,-0.77164 2.2032,-24.44299 4.27147,-52.60299 2.06826,-28.16 4.47529,-58.10206 5.34893,-66.53791 0.87365,-8.43585 1.64834,-16.11585 1.72154,-17.06667 0.61122,-7.9404 2.12552,18.91936 3.57086,63.33791 1.95223,59.99593 2.12393,62.40001 4.45668,62.40001 1.5014,0 38.9939,-20.51999 43.46205,-23.78718 1.89006,-1.38205 1.93178,-5.4615 1.16285,-113.71011 -0.62551,-88.05874 -1.08425,-112.38664 -2.12678,-112.7867 -0.7311,-0.28054 -6.3084,2.56294 -12.394,6.31886 -15.77051,9.73324 -33.75027,19.82172 -48.53477,27.23296 -7.02498,3.52151 -13.339,7.08511 -14.03115,7.91909 -0.69214,0.83399 -3.94135,19.7181 -7.22046,41.96471 -3.27912,22.2466 -6.24281,41.16836 -6.58599,42.04836 -0.77711,1.9927 -2.24981,-5.59948 -8.25792,-42.57178 -2.61322,-16.08114 -5.25258,-29.73969 -5.86523,-30.35234 -0.7741,-0.77409 -2.98323,-0.70161 -7.24156,0.23759 -29.62923,6.53485 -51.40261,9.37522 -61.86906,8.0709 -3.7462,-0.46683 -6.12082,-0.27331 -7.15252,0.58293 -1.33681,1.10945 -1.47018,16.50671 -0.99194,114.5239 0.30389,62.28318 0.78969,114.39393 1.07956,115.80166 l 0.52702,2.55952 11.40631,-0.66692 c 6.27346,-0.36681 16.58373,-1.62478 22.91169,-2.7955 z m -77.31872,-0.26995 c 0.97569,-0.97569 1.28,-23.06764 1.28,-92.92436 v -91.64434 l 2.93334,0.70506 c 1.61333,0.38779 7.93123,0.99013 14.03977,1.33853 9.9631,0.56826 11.25333,0.43259 12.53333,-1.31792 1.98592,-2.7159 2.07071,-44.49347 0.0935,-46.09744 -0.73333,-0.59491 -4.21333,-1.65493 -7.73333,-2.3556 -24.32815,-4.84259 -47.72649,-12.24675 -64,-20.25213 -13.05941,-6.42429 -19.93899,-10.95768 -35.56967,-23.43917 -6.65667,-5.3155 -12.53667,-9.39653 -13.06667,-9.06897 -0.53032,0.32775 -0.96365,12.07333 -0.96365,26.12 v 25.52444 l 7.84472,7.74595 c 4.31458,4.26027 11.19853,9.89192 15.29766,12.51479 l 7.45297,4.76885 0.70232,39.93905 c 0.38629,21.96648 0.70233,61.47963 0.70233,87.80699 0,46.49439 0.0642,47.99367 2.23583,52.25051 5.46586,10.71395 22.40133,21.55101 42.03084,26.89561 11.24839,3.06265 12.48434,3.19247 14.18666,1.49015 z m 252.69857,-79.62778 c 27.8392,-14.05319 68.6291,-27.08411 98.98142,-31.62104 6.45334,-0.96462 12.57334,-1.99259 13.6,-2.2844 1.6734,-0.47562 1.86667,-2.22143 1.86667,-16.86139 0,-13.42278 -0.29331,-16.57427 -1.64715,-17.69786 -2.69223,-2.23435 -20.00649,0.25097 -45.72422,6.56335 -12.62703,3.09929 -23.22622,5.36708 -23.55376,5.03955 -0.32753,-0.32755 4.02899,-9.18339 9.68117,-19.67965 29.66749,-55.09342 44.85992,-89.90673 50.0945,-114.79107 1.99557,-9.48658 2.01671,-33.89823 0.039,-45.09306 -6.10778,-34.57414 -26.26285,-44.59215 -56.83679,-28.25054 -20.86939,11.1546 -41.2485,32.05014 -52.06159,53.38091 -6.45719,12.738 -6.99927,16.15879 -6.67922,42.14929 0.26365,21.41009 0.44393,23.3748 2.13265,23.24253 2.34886,-0.18396 34.1928,-19.24066 38.08043,-22.78885 2.67003,-2.43691 2.98018,-3.53978 3.59957,-12.8 0.37278,-5.57333 1.68448,-13.95122 2.91489,-18.61754 5.66984,-21.5028 14.39691,-29.88386 23.309,-22.38483 4.46288,3.75527 5.01641,8.10972 2.96668,23.3382 l -1.73147,12.86417 -18.59979,36.8 c -21.29501,42.13253 -31.1704,63.14694 -39.76609,84.62054 -9.95961,24.88092 -12.09818,33.10228 -13.45321,51.71862 -1.51251,20.77993 -1.77881,20.50601 12.78727,13.15307 z m 252.77853,-10.82556 c 0.1084,-6.16 0.77017,-38.08 1.4706,-70.93333 1.55456,-72.91676 0.75627,-85.50025 -7.16321,-112.91322 -14.82966,-51.33234 -56.0026,-80.69631 -115.03783,-82.0434 l -10.66667,-0.24339 v 121.06667 121.06667 l 11.73334,0.73999 c 34.70135,2.1885 70.97612,12.32537 103.99999,29.06244 15.60818,7.91051 15.42123,7.97977 15.66378,-5.80243 z M 895.99998,336.11872 v -86.51871 h 3.27012 c 3.43209,0 7.37862,1.64009 8.72605,3.62634 2.51199,3.70296 2.70285,12.68652 1.7755,83.56945 -0.54306,41.50898 -1.2445,77.02504 -1.55877,78.92459 -0.63076,3.81263 -2.28868,5.05525 -8.23254,6.17032 l -3.98036,0.74672 z m -189.01416,96.14796 c 0.61122,-1.61333 3.24762,-8.69333 5.85867,-15.73333 7.2392,-19.51861 17.80025,-42.79643 34.58191,-76.2227 8.38214,-16.69583 15.24025,-30.97583 15.24025,-31.73334 0,-1.83638 -3.93334,-1.76769 -5.01367,0.0876 -0.46915,0.80567 -12.133,8.29417 -25.91966,16.64111 -13.78667,8.34694 -25.90667,15.92215 -26.93334,16.83381 -1.72207,1.52915 -1.86666,5.14249 -1.86666,46.64777 0,24.74463 0.32,45.31025 0.71111,45.70135 1.32266,1.32266 2.22598,0.72189 3.34139,-2.22222 z m 108.48083,-72.74415 c 2.93333,-1.02797 7.97333,-2.48393 11.2,-3.23547 3.22666,-0.75153 6.46666,-1.84234 7.2,-2.42401 1.0231,-0.81152 1.32953,-10.02391 1.317,-39.59364 -0.009,-21.19484 -0.43651,-39.19949 -0.95006,-40.01034 -1.12881,-1.7823 -1.16019,-1.6922 -4.78589,13.74094 -3.98131,16.94679 -11.63093,37.34059 -23.28292,62.07194 -3.02246,6.41518 -5.09046,12.14283 -4.7266,13.09105 0.58812,1.53261 1.01256,1.52872 4.67102,-0.0428 2.21327,-0.95074 6.42411,-2.56968 9.35745,-3.59765 z"
         style="fill:#3b6339;stroke-width:1.06667" />
      <path
         id="path24"
         d="m 504.17247,542.13335 c -0.38531,-12.76 -0.70176,-54.25167 -0.7032,-92.20371 -0.002,-51.54203 -0.3185,-69.19895 -1.25088,-69.7752 -2.40643,-1.48726 -13.0738,-0.43684 -14.48507,1.42635 -1.03101,1.36116 -1.33333,15.75015 -1.33333,63.45983 v 61.69955 l -5.17837,-0.68695 c -4.80845,-0.63785 -5.2265,-0.50713 -5.8521,1.82993 -0.37056,1.38428 -0.68029,14.66627 -0.6883,29.51555 l -0.0146,26.9987 -5.06667,-0.72971 c -8.51028,-1.22569 -24.66069,-5.69197 -32.22992,-8.91296 -14.19634,-6.04108 -24.32453,-13.87824 -29.90341,-23.13914 l -3.73334,-6.19731 -0.55783,-86.9758 c -0.30682,-47.83669 -0.66682,-87.025 -0.8,-87.08514 -0.1332,-0.0602 -4.39749,-3.18012 -9.47622,-6.93333 -5.07874,-3.75319 -12.03874,-10.07632 -15.46667,-14.05139 l -6.23261,-7.22738 v -34.10596 c 0,-18.75826 0.25454,-34.10594 0.56563,-34.10594 0.3111,0 6.42467,5.05332 13.58573,11.2296 7.16106,6.17629 13.74653,11.09055 14.63437,10.92058 1.33269,-0.25513 1.70729,-3.25057 2.1476,-17.17295 l 0.53334,-16.86392 6.93333,5.59485 c 11.63747,9.39086 30.65569,21.23831 45.29358,28.21577 22.9585,10.94365 39.53556,15.40941 57.20025,15.40941 h 9.50617 v 12.58666 c 0,12.95738 0.64211,15.14667 4.44247,15.14667 3.12781,0 4.09086,-3.58553 4.09086,-15.23071 V 293.665 l 15.73333,-0.65188 c 16.9759,-0.70337 32.90325,-2.77434 47.0303,-6.11517 4.89333,-1.15719 9.2861,-1.86349 9.76171,-1.56955 0.47561,0.29394 1.19534,3.38287 1.59941,6.86428 0.40405,3.48141 1.34692,7.16716 2.09525,8.19057 1.1942,1.63315 1.7678,1.69207 4.68987,0.48171 1.83109,-0.75847 5.47393,-2.73914 8.09521,-4.40151 l 4.76595,-3.02247 0.31448,-7.7683 0.31449,-7.76829 10.66666,-5.73136 c 29.76968,-15.99566 38.52956,-20.93967 52.06165,-29.38315 8.10056,-5.05443 14.92837,-9.18987 15.1729,-9.18987 0.24454,0 0.5768,7.56 0.73837,16.8 0.24234,13.85941 0.56549,16.8 1.84628,16.8 0.88257,0 4.70856,-5.71123 8.86599,-13.23466 10.02811,-18.14722 15.42077,-25.44199 28.49407,-38.54454 13.20232,-13.23188 29.59209,-24.67044 42.81487,-29.88087 7.67707,-3.02514 10.29688,-3.53313 18.55514,-3.59788 12.18398,-0.0956 18.16316,2.57861 24.40062,10.91296 4.6418,6.20227 6.74553,6.96052 7.24593,2.61165 0.33203,-2.88566 0.47108,-2.93838 8.55645,-3.24401 l 8.21893,-0.31068 0.3144,-7.15598 0.3144,-7.15599 7.92451,0.28542 c 9.90603,0.3568 26.54405,3.68623 38.70109,7.74446 47.83846,15.96934 75.02659,53.04935 79.75336,108.77012 2.86309,33.75111 3.06105,48.80034 1.45221,110.4 -0.88869,34.02667 -1.35779,66.49019 -1.04243,72.14117 0.31536,5.65096 0.32048,10.52738 0.0114,10.83648 -0.3091,0.3091 -8.40951,-3.42392 -18.0009,-8.2956 -70.14025,-35.62572 -121.90981,-40.07657 -192.53259,-16.5529 -31.15043,10.37587 -48.75076,18.79455 -100.07255,47.86722 -46.26222,26.20653 -52.48214,29.16587 -85.54183,40.69956 -25.45216,8.87962 -50.20531,13.76894 -69.94908,13.81659 l -8.63014,0.0208 z m 41.19957,13.65662 c 12.8618,-2.37952 18.70389,-3.85637 20.93206,-5.29151 1.28905,-0.83025 1.32566,-8.87585 0.256,-56.26695 -0.68646,-30.41399 -1.52522,-62.01816 -1.86391,-70.2315 -1.19963,-29.09139 0.9716,-18.28884 14.57867,72.53334 4.10192,27.37879 7.09579,44.30516 8.00586,45.26245 1.25696,1.32218 2.72121,1.05063 10.81981,-2.0066 13.56085,-5.11923 29.03152,-12.49295 29.62393,-14.11953 0.28105,-0.77164 2.2032,-24.44299 4.27147,-52.60299 2.06826,-28.16 4.47529,-58.10206 5.34893,-66.53791 0.87365,-8.43585 1.64834,-16.11585 1.72154,-17.06667 0.61122,-7.9404 2.12552,18.91936 3.57086,63.33791 1.95223,59.99593 2.12393,62.40001 4.45668,62.40001 1.5014,0 38.9939,-20.51999 43.46205,-23.78718 1.89006,-1.38205 1.93178,-5.4615 1.16285,-113.71011 -0.62551,-88.05874 -1.08425,-112.38664 -2.12678,-112.7867 -0.7311,-0.28054 -6.3084,2.56294 -12.394,6.31886 -15.77051,9.73324 -33.75027,19.82172 -48.53477,27.23296 -7.02498,3.52151 -13.339,7.08511 -14.03115,7.91909 -0.69214,0.83399 -3.94135,19.7181 -7.22046,41.96471 -3.27912,22.2466 -6.24281,41.16836 -6.58599,42.04836 -0.77711,1.9927 -2.24981,-5.59948 -8.25792,-42.57178 -2.61322,-16.08114 -5.25258,-29.73969 -5.86523,-30.35234 -0.7741,-0.77409 -2.98323,-0.70161 -7.24156,0.23759 -29.62923,6.53485 -51.40261,9.37522 -61.86906,8.0709 -3.7462,-0.46683 -6.12082,-0.27331 -7.15252,0.58293 -1.33681,1.10945 -1.47018,16.50671 -0.99194,114.5239 0.30389,62.28318 0.78969,114.39393 1.07956,115.80166 l 0.52702,2.55952 11.40631,-0.66692 c 6.27346,-0.36681 16.58373,-1.62478 22.91169,-2.7955 z m -77.31872,-0.26995 c 0.97569,-0.97569 1.28,-23.06764 1.28,-92.92436 v -91.64434 l 2.93334,0.70506 c 1.61333,0.38779 7.93123,0.99013 14.03977,1.33853 9.9631,0.56826 11.25333,0.43259 12.53333,-1.31792 1.98592,-2.7159 2.07071,-44.49347 0.0935,-46.09744 -0.73333,-0.59491 -4.21333,-1.65493 -7.73333,-2.3556 -24.32815,-4.84259 -47.72649,-12.24675 -64,-20.25213 -13.05941,-6.42429 -19.93899,-10.95768 -35.56967,-23.43917 -6.65667,-5.3155 -12.53667,-9.39653 -13.06667,-9.06897 -0.53032,0.32775 -0.96365,12.07333 -0.96365,26.12 v 25.52444 l 7.84472,7.74595 c 4.31458,4.26027 11.19853,9.89192 15.29766,12.51479 l 7.45297,4.76885 0.70232,39.93905 c 0.38629,21.96648 0.70233,61.47963 0.70233,87.80699 0,46.49439 0.0642,47.99367 2.23583,52.25051 5.46586,10.71395 22.40133,21.55101 42.03084,26.89561 11.24839,3.06265 12.48434,3.19247 14.18666,1.49015 z m 252.69857,-79.62778 c 27.8392,-14.05319 68.6291,-27.08411 98.98142,-31.62104 6.45334,-0.96462 12.57334,-1.99259 13.6,-2.2844 1.6734,-0.47562 1.86667,-2.22143 1.86667,-16.86139 0,-13.42278 -0.29331,-16.57427 -1.64715,-17.69786 -2.69223,-2.23435 -20.00649,0.25097 -45.72422,6.56335 -12.62703,3.09929 -23.22622,5.36708 -23.55376,5.03955 -0.32753,-0.32755 4.02899,-9.18339 9.68117,-19.67965 29.66749,-55.09342 44.85992,-89.90673 50.0945,-114.79107 1.99557,-9.48658 2.01671,-33.89823 0.039,-45.09306 -6.10778,-34.57414 -26.26285,-44.59215 -56.83679,-28.25054 -20.86939,11.1546 -41.2485,32.05014 -52.06159,53.38091 -6.45719,12.738 -6.99927,16.15879 -6.67922,42.14929 0.26365,21.41009 0.44393,23.3748 2.13265,23.24253 2.34886,-0.18396 34.1928,-19.24066 38.08043,-22.78885 2.67003,-2.43691 2.98018,-3.53978 3.59957,-12.8 0.37278,-5.57333 1.68448,-13.95122 2.91489,-18.61754 5.66984,-21.5028 14.39691,-29.88386 23.309,-22.38483 4.46288,3.75527 5.01641,8.10972 2.96668,23.3382 l -1.73147,12.86417 -18.59979,36.8 c -21.29501,42.13253 -31.1704,63.14694 -39.76609,84.62054 -9.95961,24.88092 -12.09818,33.10228 -13.45321,51.71862 -1.51251,20.77993 -1.77881,20.50601 12.78727,13.15307 z m 252.77853,-10.82556 c 0.1084,-6.16 0.77017,-38.08 1.4706,-70.93333 1.55456,-72.91676 0.75627,-85.50025 -7.16321,-112.91322 -14.82966,-51.33234 -56.0026,-80.69631 -115.03783,-82.0434 l -10.66667,-0.24339 v 121.06667 121.06667 l 11.73334,0.73999 c 34.70135,2.1885 70.97612,12.32537 103.99999,29.06244 15.60818,7.91051 15.42123,7.97977 15.66378,-5.80243 z M 895.99998,336.11872 v -86.51871 h 3.27012 c 3.43209,0 7.37862,1.64009 8.72605,3.62634 2.51199,3.70296 2.70285,12.68652 1.7755,83.56945 -0.54306,41.50898 -1.2445,77.02504 -1.55877,78.92459 -0.63076,3.81263 -2.28868,5.05525 -8.23254,6.17032 l -3.98036,0.74672 z m -189.01416,96.14796 c 0.61122,-1.61333 3.24762,-8.69333 5.85867,-15.73333 7.2392,-19.51861 17.80025,-42.79643 34.58191,-76.2227 8.38214,-16.69583 15.24025,-30.97583 15.24025,-31.73334 0,-1.83638 -3.93334,-1.76769 -5.01367,0.0876 -0.46915,0.80567 -12.133,8.29417 -25.91966,16.64111 -13.78667,8.34694 -25.90667,15.92215 -26.93334,16.83381 -1.72207,1.52915 -1.86666,5.14249 -1.86666,46.64777 0,24.74463 0.32,45.31025 0.71111,45.70135 1.32266,1.32266 2.22598,0.72189 3.34139,-2.22222 z m 108.48083,-72.74415 c 2.93333,-1.02797 7.97333,-2.48393 11.2,-3.23547 3.22666,-0.75153 6.46666,-1.84234 7.2,-2.42401 1.0231,-0.81152 1.32953,-10.02391 1.317,-39.59364 -0.009,-21.19484 -0.43651,-39.19949 -0.95006,-40.01034 -1.12881,-1.7823 -1.16019,-1.6922 -4.78589,13.74094 -3.98131,16.94679 -11.63093,37.34059 -23.28292,62.07194 -3.02246,6.41518 -5.09046,12.14283 -4.7266,13.09105 0.58812,1.53261 1.01256,1.52872 4.67102,-0.0428 2.21327,-0.95074 6.42411,-2.56968 9.35745,-3.59765 z"
         style="fill:#32316b;stroke-width:1.06667" />
    </g>
  </g>
</svg>
